<svg width="323" height="100" viewBox="0 0 323 100" fill="none" xmlns="http://www.w3.org/2000/svg">
<path d="M223 30C223 13.4315 236.431 0 253 0H293C309.569 0 323 13.4315 323 30V70C323 86.5685 309.569 100 293 100H253C236.431 100 223 86.5685 223 70V30Z" fill="#333333"/>
<circle cx="274" cy="35" r="15" fill="white"/>
<path d="M274.5 42C289.722 42 288.722 78.75 288.722 78.75H259.278C259.278 78.75 259.278 42 274.5 42Z" fill="white"/>
<path d="M44.1753 49.0039H35.6206C35.4644 47.8971 35.1453 46.9141 34.6636 46.0547C34.1818 45.1823 33.5633 44.4401 32.8081 43.8281C32.0529 43.2161 31.1805 42.7474 30.1909 42.4219C29.2144 42.0964 28.1532 41.9336 27.0073 41.9336C24.937 41.9336 23.1336 42.4479 21.5972 43.4766C20.0607 44.4922 18.8693 45.9766 18.0229 47.9297C17.1766 49.8698 16.7534 52.2266 16.7534 55C16.7534 57.8516 17.1766 60.2474 18.0229 62.1875C18.8823 64.1276 20.0802 65.5924 21.6167 66.582C23.1532 67.5716 24.9305 68.0664 26.9487 68.0664C28.0815 68.0664 29.1297 67.9167 30.0933 67.6172C31.0698 67.3177 31.9357 66.8815 32.6909 66.3086C33.4461 65.7227 34.0711 65.013 34.5659 64.1797C35.0737 63.3464 35.4253 62.3958 35.6206 61.3281L44.1753 61.3672C43.9539 63.2031 43.4006 64.974 42.5151 66.6797C41.6427 68.3724 40.4644 69.8893 38.98 71.2305C37.5086 72.5586 35.7508 73.6133 33.7065 74.3945C31.6753 75.1628 29.3771 75.5469 26.812 75.5469C23.2443 75.5469 20.0542 74.7396 17.2417 73.125C14.4422 71.5104 12.2287 69.1732 10.6011 66.1133C8.98649 63.0534 8.1792 59.349 8.1792 55C8.1792 50.638 8.99951 46.9271 10.6401 43.8672C12.2808 40.8073 14.5073 38.4766 17.3198 36.875C20.1323 35.2604 23.2964 34.4531 26.812 34.4531C29.1297 34.4531 31.2782 34.7786 33.2573 35.4297C35.2495 36.0807 37.0138 37.0312 38.5503 38.2812C40.0868 39.5182 41.3368 41.0352 42.3003 42.832C43.2769 44.6289 43.9019 46.6862 44.1753 49.0039ZM58.6968 35V75H50.2397V35H58.6968ZM65.6548 75V35H81.436C84.4699 35 87.0545 35.5794 89.1899 36.7383C91.3254 37.8841 92.953 39.4792 94.0728 41.5234C95.2056 43.5547 95.772 45.8984 95.772 48.5547C95.772 51.2109 95.1991 53.5547 94.0532 55.5859C92.9074 57.6172 91.2472 59.1992 89.0728 60.332C86.9113 61.4648 84.2941 62.0312 81.2212 62.0312H71.1626V55.2539H79.854C81.4816 55.2539 82.8228 54.974 83.8774 54.4141C84.9452 53.8411 85.7394 53.0534 86.2603 52.0508C86.7941 51.0352 87.061 49.8698 87.061 48.5547C87.061 47.2266 86.7941 46.0677 86.2603 45.0781C85.7394 44.0755 84.9452 43.3008 83.8774 42.7539C82.8097 42.194 81.4556 41.9141 79.8149 41.9141H74.1118V75H65.6548ZM101.265 75V35H109.722V51.5039H126.89V35H135.328V75H126.89V58.4766H109.722V75H101.265ZM142.3 75V35H169.253V41.9727H150.757V51.5039H167.867V58.4766H150.757V68.0273H169.332V75H142.3ZM175.977 75V35H191.758C194.779 35 197.357 35.5404 199.493 36.6211C201.641 37.6888 203.275 39.2057 204.395 41.1719C205.528 43.125 206.094 45.4232 206.094 48.0664C206.094 50.7227 205.521 53.0078 204.375 54.9219C203.23 56.8229 201.57 58.2812 199.395 59.2969C197.234 60.3125 194.616 60.8203 191.543 60.8203H180.977V54.0234H190.176C191.791 54.0234 193.132 53.8021 194.2 53.3594C195.267 52.9167 196.062 52.2526 196.583 51.3672C197.116 50.4818 197.383 49.3815 197.383 48.0664C197.383 46.7383 197.116 45.6185 196.583 44.707C196.062 43.7956 195.261 43.1055 194.18 42.6367C193.112 42.1549 191.765 41.9141 190.137 41.9141H184.434V75H175.977ZM197.579 56.7969L207.52 75H198.184L188.458 56.7969H197.579Z" fill="#333333"/>
</svg>
